# xmcd
#
# Track frame offsets:
#	151
#	18119
#	30235
#	51357
#
# Disc length: 972 seconds
#
# Revision: 2
# Processed by: cddbd v1.5.1PL2 Copyright (c) Steve Scherf et al.
# Submitted via: dBpowerAMP V4.0
#
DISCID=2203ca04
DTITLE=Man-Raze - Skin Crawl
DYEAR=2005
DGENRE=Hard Rock
TTITLE0=Skin Crawl
TTITLE1=You're So Wrong
TTITLE2=Runnin Me up (Instrumental Dub)
TTITLE3=Skin Crawl (SPX Crawler's Mix)
EXTD=
EXTT0=
EXTT1=
EXTT2=
EXTT3=
PLAYORDER=
